<svg xmlns="http://www.w3.org/2000/svg" version="1.1" xmlns:xlink="http://www.w3.org/1999/xlink" xmlns:svgjs="http://svgjs.com/svgjs" width="1728" height="1015" preserveAspectRatio="none" viewBox="0 0 1728 1015"><g mask="url(&quot;#SvgjsMask1010&quot;)" fill="none"><rect width="1728" height="1015" x="0" y="0" fill="#0e2a47"></rect><path d="M1081 823L1080 235" stroke-width="10" stroke="url(#SvgjsLinearGradient1011)" stroke-linecap="round" class="Up"></path><path d="M634 621L633 1000" stroke-width="10" stroke="url(#SvgjsLinearGradient1012)" stroke-linecap="round" class="Down"></path><path d="M22 334L21 -62" stroke-width="6" stroke="url(#SvgjsLinearGradient1012)" stroke-linecap="round" class="Down"></path><path d="M94 570L93 994" stroke-width="8" stroke="url(#SvgjsLinearGradient1011)" stroke-linecap="round" class="Up"></path><path d="M328 875L327 1462" stroke-width="10" stroke="url(#SvgjsLinearGradient1012)" stroke-linecap="round" class="Down"></path><path d="M501 324L500 1058" stroke-width="8" stroke="url(#SvgjsLinearGradient1012)" stroke-linecap="round" class="Down"></path><path d="M37 172L36 440" stroke-width="6" stroke="url(#SvgjsLinearGradient1011)" stroke-linecap="round" class="Up"></path><path d="M71 285L70 -39" stroke-width="6" stroke="url(#SvgjsLinearGradient1011)" stroke-linecap="round" class="Up"></path><path d="M892 844L891 1164" stroke-width="8" stroke="url(#SvgjsLinearGradient1011)" stroke-linecap="round" class="Up"></path><path d="M1255 881L1254 1258" stroke-width="8" stroke="url(#SvgjsLinearGradient1011)" stroke-linecap="round" class="Up"></path><path d="M1109 315L1108 950" stroke-width="8" stroke="url(#SvgjsLinearGradient1012)" stroke-linecap="round" class="Down"></path><path d="M107 611L106 232" stroke-width="6" stroke="url(#SvgjsLinearGradient1011)" stroke-linecap="round" class="Up"></path><path d="M1633 626L1632 70" stroke-width="10" stroke="url(#SvgjsLinearGradient1012)" stroke-linecap="round" class="Down"></path><path d="M775 945L774 279" stroke-width="6" stroke="url(#SvgjsLinearGradient1011)" stroke-linecap="round" class="Up"></path><path d="M1615 474L1614 87" stroke-width="8" stroke="url(#SvgjsLinearGradient1011)" stroke-linecap="round" class="Up"></path><path d="M1325 583L1324 -161" stroke-width="8" stroke="url(#SvgjsLinearGradient1011)" stroke-linecap="round" class="Up"></path><path d="M1105 176L1104 530" stroke-width="6" stroke="url(#SvgjsLinearGradient1011)" stroke-linecap="round" class="Up"></path><path d="M1653 545L1652 802" stroke-width="10" stroke="url(#SvgjsLinearGradient1012)" stroke-linecap="round" class="Down"></path><path d="M1120 699L1119 1045" stroke-width="6" stroke="url(#SvgjsLinearGradient1011)" stroke-linecap="round" class="Up"></path><path d="M691 346L690 980" stroke-width="10" stroke="url(#SvgjsLinearGradient1012)" stroke-linecap="round" class="Down"></path><path d="M1238 323L1237 825" stroke-width="10" stroke="url(#SvgjsLinearGradient1012)" stroke-linecap="round" class="Down"></path><path d="M23 665L22 1067" stroke-width="6" stroke="url(#SvgjsLinearGradient1011)" stroke-linecap="round" class="Up"></path><path d="M546 609L545 884" stroke-width="10" stroke="url(#SvgjsLinearGradient1012)" stroke-linecap="round" class="Down"></path><path d="M1702 868L1701 1158" stroke-width="10" stroke="url(#SvgjsLinearGradient1011)" stroke-linecap="round" class="Up"></path><path d="M1510 576L1509 1255" stroke-width="10" stroke="url(#SvgjsLinearGradient1012)" stroke-linecap="round" class="Down"></path><path d="M1594 720L1593 388" stroke-width="10" stroke="url(#SvgjsLinearGradient1011)" stroke-linecap="round" class="Up"></path><path d="M103 906L102 1501" stroke-width="8" stroke="url(#SvgjsLinearGradient1012)" stroke-linecap="round" class="Down"></path><path d="M1439 125L1438 871" stroke-width="10" stroke="url(#SvgjsLinearGradient1011)" stroke-linecap="round" class="Up"></path><path d="M1004 391L1003 760" stroke-width="10" stroke="url(#SvgjsLinearGradient1012)" stroke-linecap="round" class="Down"></path><path d="M696 416L695 116" stroke-width="10" stroke="url(#SvgjsLinearGradient1011)" stroke-linecap="round" class="Up"></path><path d="M1492 433L1491 5" stroke-width="6" stroke="url(#SvgjsLinearGradient1011)" stroke-linecap="round" class="Up"></path><path d="M1262 190L1261 736" stroke-width="6" stroke="url(#SvgjsLinearGradient1011)" stroke-linecap="round" class="Up"></path><path d="M389 724L388 397" stroke-width="10" stroke="url(#SvgjsLinearGradient1012)" stroke-linecap="round" class="Down"></path><path d="M1161 546L1160 -78" stroke-width="8" stroke="url(#SvgjsLinearGradient1011)" stroke-linecap="round" class="Up"></path><path d="M1022 266L1021 927" stroke-width="10" stroke="url(#SvgjsLinearGradient1011)" stroke-linecap="round" class="Up"></path><path d="M379 681L378 1350" stroke-width="8" stroke="url(#SvgjsLinearGradient1011)" stroke-linecap="round" class="Up"></path><path d="M614 679L613 302" stroke-width="10" stroke="url(#SvgjsLinearGradient1012)" stroke-linecap="round" class="Down"></path><path d="M864 626L863 163" stroke-width="10" stroke="url(#SvgjsLinearGradient1012)" stroke-linecap="round" class="Down"></path><path d="M1082 295L1081 -433" stroke-width="10" stroke="url(#SvgjsLinearGradient1011)" stroke-linecap="round" class="Up"></path><path d="M788 571L787 -149" stroke-width="6" stroke="url(#SvgjsLinearGradient1012)" stroke-linecap="round" class="Down"></path><path d="M462 262L461 -275" stroke-width="8" stroke="url(#SvgjsLinearGradient1011)" stroke-linecap="round" class="Up"></path><path d="M208 285L207 546" stroke-width="6" stroke="url(#SvgjsLinearGradient1011)" stroke-linecap="round" class="Up"></path><path d="M934 700L933 1414" stroke-width="6" stroke="url(#SvgjsLinearGradient1012)" stroke-linecap="round" class="Down"></path><path d="M66 885L65 590" stroke-width="10" stroke="url(#SvgjsLinearGradient1012)" stroke-linecap="round" class="Down"></path></g><defs><mask id="SvgjsMask1010"><rect width="1728" height="1015" fill="#ffffff"></rect></mask><linearGradient x1="0%" y1="100%" x2="0%" y2="0%" id="SvgjsLinearGradient1011"><stop stop-color="rgba(28, 83, 142, 0)" offset="0"></stop><stop stop-color="#1c538e" offset="1"></stop></linearGradient><linearGradient x1="0%" y1="0%" x2="0%" y2="100%" id="SvgjsLinearGradient1012"><stop stop-color="rgba(28, 83, 142, 0)" offset="0"></stop><stop stop-color="#1c538e" offset="1"></stop></linearGradient></defs></svg>